<?xml version="1.0" encoding="utf-8"?>
<!-- Generator: Adobe Illustrator 27.5.0, SVG Export Plug-In . SVG Version: 6.00 Build 0)  -->
<svg version="1.1" xmlns="http://www.w3.org/2000/svg" xmlns:xlink="http://www.w3.org/1999/xlink" x="0px" y="0px"
	 viewBox="0 0 3710 3710" style="enable-background:new 0 0 3710 3710;" xml:space="preserve">
<g id="Background">
	<g>
		<g>
			<rect style="fill:#FFFFFF;" width="3710" height="3710"/>
		</g>
	</g>
</g>
<g id="Illustration">
	<g>
		<path style="fill:#F4F7FA;" d="M1104.125,558.491c-96.495,140.663,16.647,368.711-126.534,474.502
			c-139.376,102.979-310.596-65.817-441.948,22.826c-194.855,131.498-159.271,733.206,125.617,1107.059
			c85.676,112.431,157.263,156.176,188.969,283.329c68.081,273.031-171.19,435.447-125.657,570.484
			c102.524,304.053,1679.264,559.19,2311.922-354.591c295.477-426.773,339.688-1043.037,75.687-1511.093
			C2635.138,305.237,1320.642,242.869,1104.125,558.491z"/>
		<g>
			<g>
				<g>
					<defs>
						<path id="SVGID_1_" d="M1731.313,2913.307c-22.958,13.207-84.545,21.7-101.512,17.294
							c-112.914-29.316-327.888-70.472-396.678-172.826c-11.749-17.48,51.201-89.922,49.991-113.253
							c28.924-55.928,42.427-73.535,43.804-140.213c4.068-196.85-393.5-258.065-196.562-535.842
							c144.254-203.466,353.885-259.976,109.721-538.491c-244.161-278.516-418.807-991.756,47.767-1022.965
							c267.77-17.911,277.197,369.792,509.247,484.435c220.508,108.942,256.03,309.765,149.905,556.642
							c-106.124,246.878,54.871,252.035,235.739,377.395c217.261,150.585-63.502,420.264-203.743,533.711
							C1866.057,2450.548,1640.125,2759.363,1731.313,2913.307z"/>
					</defs>
					
						<linearGradient id="SVGID_00000015347399015703274120000003862528174790681516_" gradientUnits="userSpaceOnUse" x1="1525.9791" y1="898.501" x2="1677.5765" y2="2105.446">
						<stop  offset="0" style="stop-color:#FF9085"/>
						<stop  offset="1" style="stop-color:#FB6FBB"/>
					</linearGradient>
					
						<use xlink:href="#SVGID_1_"  style="overflow:visible;fill:url(#SVGID_00000015347399015703274120000003862528174790681516_);"/>
					<clipPath id="SVGID_00000014620721560828152750000012960582620945025439_">
						<use xlink:href="#SVGID_1_"  style="overflow:visible;"/>
					</clipPath>
					<g style="opacity:0.7;clip-path:url(#SVGID_00000014620721560828152750000012960582620945025439_);">
						<g>
							<path style="fill:#FCFDFE;" d="M1440.499,2850.639l-5.027-2.534c390.362-774.706,278.787-1697.066-298.46-2467.309
								l4.508-3.38c273.573,365.041,448.758,780.278,506.615,1200.823C1708.961,2020.361,1637.161,2460.349,1440.499,2850.639z"/>
							<path style="fill:#FCFDFE;" d="M2280.217,1877.711c-224.197,77.686-525.48,304.464-671.604,505.532l-4.555-3.312
								c146.701-201.856,449.196-429.537,674.314-507.542L2280.217,1877.711z"/>
							<path style="fill:#FCFDFE;" d="M1515.388,2697.685l-5.535-1.045c23.884-126.972-17.339-261.141-122.526-398.78
								c-77.127-100.922-186.209-201.325-324.224-298.424l3.244-4.606c138.48,97.429,247.982,198.23,325.455,299.609
								C1498.001,2433.4,1539.581,2569.071,1515.388,2697.685z"/>
							<path style="fill:#FCFDFE;" d="M1637.603,1518.866l-5.582-0.755c32.711-241.652,205.49-431.138,344.673-547.55l3.615,4.324
								C1841.887,1090.655,1670.07,1279.006,1637.603,1518.866z"/>
							<path style="fill:#FCFDFE;" d="M1486.884,981.377l-4.718,3.078c-150.141-230.058-421.827-326.702-570.411-363.834
								l1.365-5.466C1062.506,652.49,1335.691,749.709,1486.884,981.377z"/>
						</g>
					</g>
				</g>
			</g>
		</g>
		<g>
			<g>
				<defs>
					<path id="SVGID_00000034079755261840703340000011689535184921424786_" d="M820.693,2832.892
						c-110.953-60.557-151.258-248.17-140.883-378.409c12.115-152.058,88.447-164.883,88.666-283.874
						c0.408-221.544-264.034-267.936-281.341-491.387c-14.148-182.669,157.213-220.981,132.339-422.559
						c-17.947-145.457-115.8-195.422-89.698-327.177c2.231-11.264,28.038-132.389,124.446-171.16
						c97.307-39.131,209.627,28.521,268.036,86.726c107.967,107.59,47.839,198.951,129.025,373.461
						c110.533,237.589,287.415,208.88,332.643,400.645c37.349,158.354-74.651,214.455-29.752,389.211
						c41.694,162.277,153.42,172.87,171.008,284.732C1565.645,2550.439,1047.007,2956.41,820.693,2832.892z"/>
				</defs>
				
					<linearGradient id="SVGID_00000126283864676504787740000007705687458093524415_" gradientUnits="userSpaceOnUse" x1="1025.1095" y1="1652.4757" x2="1508.4735" y2="517.8401">
					<stop  offset="0.0036" style="stop-color:#E38DDD"/>
					<stop  offset="1" style="stop-color:#9571F6"/>
				</linearGradient>
				
					<use xlink:href="#SVGID_00000034079755261840703340000011689535184921424786_"  style="overflow:visible;fill:url(#SVGID_00000126283864676504787740000007705687458093524415_);"/>
				<clipPath id="SVGID_00000033368080390491481120000015652492031509588909_">
					<use xlink:href="#SVGID_00000034079755261840703340000011689535184921424786_"  style="overflow:visible;"/>
				</clipPath>
				<g style="clip-path:url(#SVGID_00000033368080390491481120000015652492031509588909_);">
					<g style="opacity:0.7;">
						<path style="fill:#FFFFFF;" d="M982.253,2935.686c-0.602,0-1.196-0.274-1.586-0.79c-0.66-0.875-0.487-2.12,0.388-2.78
							c89.083-67.209,160.196-150.098,211.361-246.366c48.465-91.196,98.572-185.478,81.214-293.243
							c-13.123-81.485-56.677-121.174-111.821-171.423c-53.705-48.94-120.541-109.847-176.427-230.709
							c-31.909-69.013-71.62-154.902-61.297-264.945c6.016-64.11,26.329-102.217,44.251-135.838
							c18.761-35.193,33.579-62.99,24.771-108.28c-14.373-73.9-60.179-117.357-113.218-167.679
							c-32.765-31.083-66.644-63.228-98.216-106.597c-88.865-122.07-111.258-297.266-66.554-520.719
							c0.217-1.073,1.25-1.768,2.336-1.556c1.075,0.215,1.771,1.26,1.557,2.336c-44.477,222.32-22.315,396.467,65.871,517.603
							c31.359,43.074,65.105,75.09,97.74,106.053c53.533,50.789,99.766,94.654,114.381,169.8
							c9.079,46.673-6.789,76.439-25.163,110.906c-17.747,33.292-37.861,71.026-43.804,134.342
							c-10.223,108.977,29.241,194.327,60.95,262.907c55.547,120.136,122.056,180.743,175.496,229.442
							c55.715,50.77,99.723,90.872,113.067,173.726c17.569,109.083-32.855,203.962-81.62,295.72
							c-51.448,96.802-122.935,180.129-212.485,247.688C983.089,2935.554,982.669,2935.686,982.253,2935.686z"/>
					</g>
					<g style="opacity:0.7;">
						<path style="fill:#FFFFFF;" d="M924.792,1779.543c-0.395,0-0.794-0.118-1.142-0.364
							c-181.119-127.669-273.976-254.949-319.979-339.243c-49.923-91.475-57.034-153.654-57.1-154.271
							c-0.116-1.09,0.672-2.068,1.763-2.186c1.102-0.107,2.07,0.674,2.186,1.763c0.066,0.612,7.146,62.191,56.769,153.034
							c45.811,83.863,138.282,210.519,318.65,337.659c0.896,0.631,1.111,1.87,0.478,2.766
							C926.03,1779.248,925.416,1779.543,924.792,1779.543z"/>
					</g>
					<g style="opacity:0.7;">
						<path style="fill:#FFFFFF;" d="M1039.759,2085.654c-0.499,0-0.997-0.186-1.383-0.56c-0.787-0.764-0.806-2.021-0.042-2.808
							c81.904-84.376,140.963-176.12,175.536-272.684c27.648-77.222,39.79-157.691,36.091-239.174
							c-6.297-138.727-57.026-233.425-57.537-234.366c-0.523-0.962-0.168-2.168,0.796-2.692c0.955-0.529,2.167-0.168,2.692,0.796
							c0.517,0.948,51.677,96.452,58.017,236.082c3.721,82.001-8.498,162.981-36.32,240.693
							c-34.765,97.102-94.124,189.326-176.425,274.112C1040.794,2085.453,1040.277,2085.654,1039.759,2085.654z"/>
					</g>
					<g style="opacity:0.7;">
						<path style="fill:#FFFFFF;" d="M1249.088,2589.171c-0.111,0-0.224-0.01-0.338-0.029
							c-250.383-43.017-391.73-157.639-466.215-246.22c-80.769-96.053-102.562-183.173-102.771-184.041
							c-0.258-1.066,0.395-2.139,1.461-2.397c1.073-0.256,2.137,0.395,2.397,1.461c0.21,0.862,21.85,87.232,102.095,182.594
							c74.057,88.005,214.622,201.896,463.705,244.689c1.08,0.186,1.806,1.211,1.621,2.293
							C1250.876,2588.489,1250.037,2589.171,1249.088,2589.171z"/>
					</g>
					<g style="opacity:0.7;">
						<path style="fill:#FFFFFF;" d="M772.393,1184.303c-0.406,0-0.815-0.125-1.168-0.381c-0.886-0.646-1.08-1.888-0.435-2.775
							c119.115-163.468,117.881-319.421,95.871-421.465c-23.852-110.583-76.494-183.375-77.023-184.096
							c-0.648-0.886-0.456-2.127,0.428-2.775c0.886-0.652,2.127-0.456,2.775,0.428c0.534,0.73,53.674,74.206,77.703,185.606
							c22.181,102.836,23.436,259.983-96.544,424.642C773.611,1184.019,773.006,1184.303,772.393,1184.303z"/>
					</g>
				</g>
			</g>
		</g>
		<g>
			<path style="fill:#97A6B7;" d="M2207.061,2964.449c-36.197-12.006-63.25-42.726-70.879-80.483l-52.682-260.742l-450.662,16.003
				l-55.464,271.635c-7.767,38.042,23.327,76.208,59.138,90.219l188.547,73.772c35.069,13.721,72.765,19.186,110.231,15.981
				l398.468-34.088c11.648-0.997,20.992-10.154,22.347-21.9c1.355-11.747,9.516-24.936-1.591-28.621L2207.061,2964.449z"/>
			
				<linearGradient id="SVGID_00000027563633706914481620000004020839823482110896_" gradientUnits="userSpaceOnUse" x1="1969.3661" y1="2715.9722" x2="1976.2163" y2="2972.8604">
				<stop  offset="0" style="stop-color:#444B8C"/>
				<stop  offset="0.9964" style="stop-color:#26264F"/>
			</linearGradient>
			<path style="fill:url(#SVGID_00000027563633706914481620000004020839823482110896_);" d="M2211.521,2948.592
				c-36.16-11.855-63.187-42.189-70.808-79.471l-52.63-257.464l-439.676,15.819l-55.408,268.22
				c-7.76,37.564,12.772,75.233,48.547,89.068l188.357,72.844c35.033,13.549,72.691,18.945,110.12,15.78l398.066-33.66
				c11.636-0.984,20.971-10.026,22.325-21.625c1.354-11.599-5.646-22.548-16.743-26.186L2211.521,2948.592z"/>
			
				<linearGradient id="SVGID_00000037691139833728624060000015332065241519241107_" gradientUnits="userSpaceOnUse" x1="2025.2937" y1="2396.6113" x2="1270.4163" y2="-253.6001">
				<stop  offset="0" style="stop-color:#444B8C"/>
				<stop  offset="0.9964" style="stop-color:#26264F"/>
			</linearGradient>
			<path style="fill:url(#SVGID_00000037691139833728624060000015332065241519241107_);" d="M2931.186,2441.936V1272.781
				c0-23.974-19.758-44.384-43.97-45.356l-2008.628-80.744c-30.565-1.228-55.649,19.892-55.649,46.94v1292.093L2931.186,2441.936z"
				/>
			<g>
				
					<linearGradient id="SVGID_00000105409734064228813080000012671039328661098659_" gradientUnits="userSpaceOnUse" x1="1079.8385" y1="2587.325" x2="2421.6689" y2="1373.2877">
					<stop  offset="0.494" style="stop-color:#EBEFF2"/>
					<stop  offset="1" style="stop-color:#FFFFFF"/>
				</linearGradient>
				<path style="fill:url(#SVGID_00000105409734064228813080000012671039328661098659_);" d="M885.065,1371.237v1009.309
					c0,25.193,23.287,45.143,51.671,44.336l1906.314-54.215c22.751-0.647,41.32-19.559,41.32-42.028v-900.188L885.065,1371.237z"/>
				<path style="fill:#D8DEE8;" d="M2884.371,1430.655v-103.307c0-22.009-18.188-40.695-40.473-41.526l-1908.218-71.189
					c-27.804-1.037-50.615,18.302-50.615,42.979v115.83L2884.371,1430.655z"/>
				<g>
					
						<linearGradient id="SVGID_00000177450401615441361470000007234148113270331539_" gradientUnits="userSpaceOnUse" x1="890.6951" y1="1035.4786" x2="1145.6602" y2="1603.5013">
						<stop  offset="0.0036" style="stop-color:#F36F56"/>
						<stop  offset="1" style="stop-color:#FFC444"/>
					</linearGradient>
					<path style="fill:url(#SVGID_00000177450401615441361470000007234148113270331539_);" d="M1024.554,1294.859
						c0,8.673-7.904,15.454-17.669,15.145c-9.779-0.309-17.716-7.611-17.716-16.307c0-8.697,7.937-15.476,17.716-15.143
						C1016.65,1278.886,1024.554,1286.186,1024.554,1294.859z"/>
					
						<linearGradient id="SVGID_00000080908237536827070310000002127584683922028700_" gradientUnits="userSpaceOnUse" x1="953.317" y1="1007.3701" x2="1208.2828" y2="1575.3948">
						<stop  offset="0.0036" style="stop-color:#F36F56"/>
						<stop  offset="1" style="stop-color:#FFC444"/>
					</linearGradient>
					<path style="fill:url(#SVGID_00000080908237536827070310000002127584683922028700_);" d="M1100.711,1297.361
						c0,8.622-7.812,15.365-17.462,15.059c-9.664-0.305-17.509-7.562-17.509-16.208c0-8.646,7.845-15.388,17.509-15.059
						C1092.899,1281.482,1100.711,1288.738,1100.711,1297.361z"/>
					
						<linearGradient id="SVGID_00000101085891767758214260000016110500421597964213_" gradientUnits="userSpaceOnUse" x1="1015.2095" y1="979.59" x2="1270.1741" y2="1547.6119">
						<stop  offset="0.0036" style="stop-color:#F36F56"/>
						<stop  offset="1" style="stop-color:#FFC444"/>
					</linearGradient>
					<path style="fill:url(#SVGID_00000101085891767758214260000016110500421597964213_);" d="M1175.983,1299.833
						c0,8.572-7.722,15.277-17.259,14.975c-9.552-0.302-17.305-7.516-17.305-16.111c0-8.595,7.754-15.299,17.305-14.974
						C1168.261,1284.049,1175.983,1291.26,1175.983,1299.833z"/>
				</g>
			</g>
			
				<linearGradient id="SVGID_00000059989756058374390150000011757191649280840892_" gradientUnits="userSpaceOnUse" x1="822.9385" y1="2612.5376" x2="2931.1858" y2="2612.5376">
				<stop  offset="0" style="stop-color:#444B8C"/>
				<stop  offset="0.9964" style="stop-color:#26264F"/>
			</linearGradient>
			<path style="fill:url(#SVGID_00000059989756058374390150000011757191649280840892_);" d="M822.938,2485.714v258.044
				c0,27.047,25.084,48.115,55.649,46.823l2008.628-84.918c24.212-1.024,43.97-21.474,43.97-45.448v-225.779L822.938,2485.714z"/>
			<g style="opacity:0.48;">
				<path style="fill:#FFFFFF;" d="M2713.627,2290.99c-164.972-55.721-301.455,57.936-420.038-31.553
					c-133.689-100.889-25.633-294.709-149.296-408.893c-171.789-158.62-515.235,87.373-664.4-62.167
					c-102.554-102.812,18.42-267.413-68.42-440.56c-44.154-88.036-126.891-148.055-227.323-188.852l-305.563-12.284
					c-30.565-1.228-55.648,19.892-55.648,46.94v1292.093v258.044c0,27.047,25.083,48.115,55.648,46.823l2008.629-84.918
					c24.213-1.024,43.971-21.474,43.971-45.448v-166.836C2860.45,2368.326,2782.364,2314.206,2713.627,2290.99z"/>
			</g>
		</g>
		<g>
			<g>
				
					<linearGradient id="SVGID_00000008138752658823053700000013197175577566405767_" gradientUnits="userSpaceOnUse" x1="959.0065" y1="2912.3115" x2="774.5798" y2="3192.2451">
					<stop  offset="0" style="stop-color:#311944"/>
					<stop  offset="1" style="stop-color:#893976"/>
				</linearGradient>
				<path style="fill:url(#SVGID_00000008138752658823053700000013197175577566405767_);" d="M942.492,3022.686
					c0,31.116-25.568,57.224-57.207,58.318c-31.75,1.098-57.569-23.393-57.569-54.706c0-31.313,25.819-57.428,57.569-58.329
					C916.924,2967.071,942.492,2991.57,942.492,3022.686z"/>
				
					<linearGradient id="SVGID_00000025403485296948740460000015134659838299277455_" gradientUnits="userSpaceOnUse" x1="968.9385" y1="2912.3115" x2="784.5119" y2="3192.2451">
					<stop  offset="0" style="stop-color:#FF9085"/>
					<stop  offset="1" style="stop-color:#FB6FBB"/>
				</linearGradient>
				<path style="fill:url(#SVGID_00000025403485296948740460000015134659838299277455_);" d="M952.424,3022.686
					c0,31.116-25.568,57.224-57.208,58.318c-31.749,1.098-57.569-23.393-57.569-54.706c0-31.313,25.819-57.428,57.569-58.329
					C926.856,2967.071,952.424,2991.57,952.424,3022.686z"/>
			</g>
			<g>
				
					<linearGradient id="SVGID_00000105386363887074145790000003342533894315266947_" gradientUnits="userSpaceOnUse" x1="832.2008" y1="2313.5571" x2="1134.3013" y2="3091.6934">
					<stop  offset="0" style="stop-color:#311944"/>
					<stop  offset="1" style="stop-color:#893976"/>
				</linearGradient>
				<path style="fill:url(#SVGID_00000105386363887074145790000003342533894315266947_);" d="M1174.725,2422.051
					c0,125.912-178.012,359.071-259.649,459.464c-20.421,25.113-58.709,26.083-79.251,1.91
					c-82.984-97.65-268.846-331.052-268.846-460.902c0-167.824,139.328-301.869,308.551-299.435
					C1041.901,2125.481,1174.725,2259.315,1174.725,2422.051z"/>
				
					<linearGradient id="SVGID_00000075860656462979262080000015713231048175957907_" gradientUnits="userSpaceOnUse" x1="842.9475" y1="2313.5571" x2="1145.048" y2="3091.6934">
					<stop  offset="0" style="stop-color:#FF9085"/>
					<stop  offset="1" style="stop-color:#FB6FBB"/>
				</linearGradient>
				<path style="fill:url(#SVGID_00000075860656462979262080000015713231048175957907_);" d="M1185.472,2422.051
					c0,125.912-178.012,359.071-259.649,459.464c-20.421,25.113-58.708,26.083-79.251,1.91
					c-82.984-97.65-268.846-331.052-268.846-460.902c0-167.824,139.328-301.869,308.551-299.435
					C1052.648,2125.481,1185.472,2259.315,1185.472,2422.051z"/>
				<path style="fill:#FFFFFF;" d="M1054.269,2422.153c0,91.373-74.857,166.136-167.992,166.996
					c-94.022,0.868-170.901-73.777-170.901-166.732c0-92.956,76.88-167.72,170.901-166.998
					C979.412,2256.133,1054.269,2330.78,1054.269,2422.153z"/>
				<g style="opacity:0.3;">
					
						<linearGradient id="SVGID_00000163068062863845028060000003777004138955224254_" gradientUnits="userSpaceOnUse" x1="735.5745" y1="2355.311" x2="1037.7446" y2="3133.627">
						<stop  offset="0" style="stop-color:#FF9085"/>
						<stop  offset="1" style="stop-color:#FB6FBB"/>
					</linearGradient>
					<path style="fill:url(#SVGID_00000163068062863845028060000003777004138955224254_);" d="M884.935,2759.647
						c19.259-125.238,102.573-166.007,88.324-283.389c-16.46-135.584-138.731-172.348-141.7-293.855
						c-0.478-19.566,2.231-38.391,7.339-56.377c-147.119,20.492-261.172,144.755-261.172,296.497
						c0,129.85,185.862,363.251,268.846,460.902c12.097,14.235,30.354,19.742,47.487,16.742
						C879.33,2845.762,878.884,2798.999,884.935,2759.647z"/>
				</g>
			</g>
		</g>
		<g>
			
				<linearGradient id="SVGID_00000093856346986222825070000005458593221387998129_" gradientUnits="userSpaceOnUse" x1="1791.9708" y1="1789.7803" x2="1255.5935" y2="2670.0957">
				<stop  offset="0" style="stop-color:#FFC444"/>
				<stop  offset="0.9964" style="stop-color:#F36F56"/>
			</linearGradient>
			<path style="fill:url(#SVGID_00000093856346986222825070000005458593221387998129_);" d="M1826.791,2305.597l-365.663,14.021
				c-124.684,4.781-228.89-96.705-228.89-226.359v-62.208c0-129.654,104.206-232.692,228.89-229.768l365.663,8.575
				c110.828,2.599,198.759,100.432,198.759,218.15v56.481C2025.55,2202.207,1937.619,2301.348,1826.791,2305.597z
				 M1461.128,1890.185c-75.818-0.974-138.52,62.055-138.52,140.519v61.556c0,78.463,62.702,140.559,138.52,138.456l365.663-10.145
				c68.147-1.891,122.741-62.547,122.741-135.242v-57.03c0-72.695-54.594-132.539-122.741-133.415L1461.128,1890.185z"/>
			
				<linearGradient id="SVGID_00000111151216121841943500000008221723027982931344_" gradientUnits="userSpaceOnUse" x1="1715.5934" y1="1696.9447" x2="2298.6279" y2="2105.0686">
				<stop  offset="0" style="stop-color:#AA80F9"/>
				<stop  offset="0.9964" style="stop-color:#6165D7"/>
			</linearGradient>
			<path style="fill:url(#SVGID_00000111151216121841943500000008221723027982931344_);" d="M2188.394,2138.999l-332.76,6.125
				c-113.153,2.083-207.601-96.57-207.601-219.968v-59.207c0-123.398,94.448-219.693,207.601-214.783l332.76,14.437
				c101.125,4.388,181.448,99.429,181.448,211.967v53.996C2369.842,2044.104,2289.519,2137.138,2188.394,2138.999z
				 M1855.634,1735.887c-68.825-2.257-125.699,56.665-125.699,131.381v58.616c0,74.715,56.874,135.057,125.699,134.52l332.76-2.598
				c62.167-0.486,112.003-57.39,112.003-126.856v-54.497c0-69.467-49.836-127.616-112.003-129.654L1855.634,1735.887z"/>
			
				<linearGradient id="SVGID_00000024705255909084870180000014044267187408723383_" gradientUnits="userSpaceOnUse" x1="1834.4507" y1="1815.6628" x2="1298.0729" y2="2695.9792">
				<stop  offset="0" style="stop-color:#FFC444"/>
				<stop  offset="0.9964" style="stop-color:#F36F56"/>
			</linearGradient>
			<path style="fill:url(#SVGID_00000024705255909084870180000014044267187408723383_);" d="M1962.104,1869.666
				c-20.124,17.648-40.365,35.366-60.675,53.222c29.279,24.436,48.103,62.633,48.103,105.41v57.03
				c0,72.695-54.594,133.351-122.741,135.242l-365.663,10.145c-75.818,2.104-138.52-59.992-138.52-138.456v-15.713
				c-3.14,2.431-6.278,4.87-9.403,7.329c-25.398,19.984-50.318,40.874-74.911,62.434c24.055,103.36,115.948,177.406,222.834,173.308
				l365.663-14.021c110.828-4.25,198.759-103.391,198.759-221.109v-56.481C2025.55,1965.813,2001.197,1909.478,1962.104,1869.666z"
				/>
		</g>
		<g>
			<g>
				
					<linearGradient id="SVGID_00000180354830305038010810000017777507617038040228_" gradientUnits="userSpaceOnUse" x1="2944.667" y1="506.426" x2="1829.1621" y2="2683.0247">
					<stop  offset="0" style="stop-color:#311944"/>
					<stop  offset="1" style="stop-color:#893976"/>
				</linearGradient>
				<path style="fill:url(#SVGID_00000180354830305038010810000017777507617038040228_);" d="M3032.318,546.61l-811.42-57.369
					l-7.876-14.265l-3.446-0.24c-38.418-2.67-69.675,24.921-69.675,61.638v1215.851c0,36.715,31.257,66.479,69.675,66.479h11.495
					l3.55-7.214l803.347-19.238c35.08,0,68.547-1.846,68.547-36.752V599.576C3096.514,564.669,3067.399,549.047,3032.318,546.61z"/>
			</g>
			<g>
				
					<linearGradient id="SVGID_00000106832998285560748890000005593772777867041415_" gradientUnits="userSpaceOnUse" x1="2964.5127" y1="498.0902" x2="1841.6304" y2="2689.0837">
					<stop  offset="0" style="stop-color:#FFC444"/>
					<stop  offset="0.9964" style="stop-color:#F36F56"/>
				</linearGradient>
				<path style="fill:url(#SVGID_00000106832998285560748890000005593772777867041415_);" d="M3047.292,531.966l-823.517-57.23
					c-38.418-2.67-69.675,24.921-69.675,61.638v1215.851c0,36.715,31.257,66.479,69.675,66.479h823.517
					c35.08,0,63.421-28.297,63.421-63.203V599.576C3110.713,564.669,3082.372,534.403,3047.292,531.966z"/>
			</g>
			<polygon style="fill:#FFFFFF;" points="3040.909,748.577 2230.734,701.768 2230.734,571.019 3040.909,623.307 			"/>
			<polygon style="fill:#FFFFFF;" points="3040.909,1445.439 2230.734,1429.111 2230.734,1371.461 3040.909,1390.204 			"/>
			<polygon style="fill:#FFFFFF;" points="3040.909,1545.42 2230.734,1533.466 2230.734,1475.815 3040.909,1490.185 			"/>
			<polygon style="fill:#FFFFFF;" points="3040.909,1645.4 2230.734,1637.82 2230.734,1580.169 3040.909,1590.166 			"/>
			<polygon style="fill:#FFFFFF;" points="3040.909,1248.914 2230.734,1223.991 2230.734,752.662 3040.909,797.337 			"/>
			<g>
				
					<linearGradient id="SVGID_00000157297632304789089380000016007257600455926165_" gradientUnits="userSpaceOnUse" x1="2506.3423" y1="996.4329" x2="2780.6526" y2="996.4329">
					<stop  offset="0" style="stop-color:#FF9085"/>
					<stop  offset="1" style="stop-color:#FB6FBB"/>
				</linearGradient>
				<path style="fill:url(#SVGID_00000157297632304789089380000016007257600455926165_);" d="M2780.653,1002.395
					c0,73.346-60.718,130.596-136.161,127.85c-76.049-2.767-138.149-65.355-138.149-139.772c0-74.417,62.1-131.607,138.149-127.764
					C2719.934,866.521,2780.653,929.048,2780.653,1002.395z"/>
				<path style="fill:#FFFFFF;" d="M2712.435,989.472l-94.941-59.662c-7.981-5.014-18.119,0.11-18.119,9.168v111.077
					c0,9.057,10.138,15.063,18.119,10.742l94.941-51.409C2720.131,1005.22,2720.131,994.308,2712.435,989.472z"/>
			</g>
		</g>
		<g>
			
				<linearGradient id="SVGID_00000173879778812551838070000005827657852132548240_" gradientUnits="userSpaceOnUse" x1="325.4408" y1="1651.7087" x2="264.8824" y2="1717.1396" gradientTransform="matrix(0.9973 0.0735 -0.0735 0.9973 1946.6361 -72.9483)">
				<stop  offset="0" style="stop-color:#AB316D"/>
				<stop  offset="1" style="stop-color:#792D3D"/>
			</linearGradient>
			<path style="fill:url(#SVGID_00000173879778812551838070000005827657852132548240_);" d="M2150.504,1642.845l-20.451-23.706
				c0,0-14.982-22.608-1.706-52.152c13.276-29.545,27.846-20.146,27.846-20.146l-5.716,21.083c0,0-3.776,13.595,8.061,31.81
				c10.203,21.563,11.105,37.584,11.105,37.584L2150.504,1642.845z"/>
			
				<linearGradient id="SVGID_00000028318554739188574750000006716380677976523397_" gradientUnits="userSpaceOnUse" x1="1263.8063" y1="1776.7053" x2="1172.5079" y2="1875.3497" gradientTransform="matrix(0.9973 0.0735 -0.0735 0.9973 1946.6361 -72.9483)">
				<stop  offset="0" style="stop-color:#AB316D"/>
				<stop  offset="1" style="stop-color:#792D3D"/>
			</linearGradient>
			<path style="fill:url(#SVGID_00000028318554739188574750000006716380677976523397_);" d="M3063.177,1796.585l26.5-20.708
				l14.056-40.123c0,0,29.476,14.196,10.07,51.613c-11.528,12.099-38.94,29.502-51.369,47.548
				C3050.005,1852.96,3063.177,1796.585,3063.177,1796.585z"/>
			
				<linearGradient id="SVGID_00000043434383860286657770000009179884998399207094_" gradientUnits="userSpaceOnUse" x1="867.0753" y1="1518.6556" x2="1314.9115" y2="2230.4604" gradientTransform="matrix(0.9973 0.0735 -0.0735 0.9973 1946.6361 -72.9483)">
				<stop  offset="0" style="stop-color:#FF9085"/>
				<stop  offset="1" style="stop-color:#FB6FBB"/>
			</linearGradient>
			<path style="fill:url(#SVGID_00000043434383860286657770000009179884998399207094_);" d="M2789.886,2083.567
				c0,0,125.638-74.855,156.549-98.937c32.229-25.113,126.732-144.763,134.547-156.673c7.814-11.91-18.642-38.833-18.642-38.833
				s-151.195,162.744-321.3,98.874C2764.063,1952.128,2789.886,2083.567,2789.886,2083.567z"/>
			
				<linearGradient id="SVGID_00000163766877881483396560000014774004227496755357_" gradientUnits="userSpaceOnUse" x1="1051.1809" y1="3149.2749" x2="1051.1809" y2="3073.8535" gradientTransform="matrix(0.9973 0.0735 -0.0735 0.9973 1946.6361 -72.9483)">
				<stop  offset="0" style="stop-color:#AB316D"/>
				<stop  offset="1" style="stop-color:#792D3D"/>
			</linearGradient>
			<path style="fill:url(#SVGID_00000163766877881483396560000014774004227496755357_);" d="M2748.045,3074.249
				c0,0,13.377,42.526,7.705,60.532c17.658,0.954,29.233-0.452,29.233-0.452s-5.698-19.365-6.394-28.802
				c-0.939-12.75,0.704-33.145,0.704-33.145L2748.045,3074.249z"/>
			<path style="fill:#26264F;" d="M2485.949,3160.307c0.967,1.361,2.655,4.177,2.545,7.819c-0.059,1.978-0.63,3.566-1.307,5.017
				c-3.343,7.162-7.813,7.809-13.135,15.279c-3.251,4.565-2.81,6.046-5.625,8.006c-3.711,2.584-7.959,2.435-11.634,2.206
				c-6.209-0.385-15.126-1.266-26.274-3.435c6.454-7.162,13.291-14.417,20.531-21.717c3.175-3.201,6.34-6.323,9.49-9.366
				l17.761-4.578C2480.851,3159.793,2483.4,3160.05,2485.949,3160.307z"/>
			
				<linearGradient id="SVGID_00000099656853613354897090000001813639250891700381_" gradientUnits="userSpaceOnUse" x1="747.7615" y1="3178.9622" x2="747.7615" y2="3088.0679" gradientTransform="matrix(0.9973 0.0735 -0.0735 0.9973 1946.6361 -72.9483)">
				<stop  offset="0" style="stop-color:#AB316D"/>
				<stop  offset="1" style="stop-color:#792D3D"/>
			</linearGradient>
			<path style="fill:url(#SVGID_00000099656853613354897090000001813639250891700381_);" d="M2477.738,3075.11
				c0,0-13.714,50.954-2.176,66.355c9.671,15.265-5.491,3.768-5.491,3.768l-20.24,15.194l-12.862,18.866
				c0,0,14.231-49.813,12.91-70.093c-1.322-20.281-1.725-33.923-1.725-33.923L2477.738,3075.11z"/>
			
				<linearGradient id="SVGID_00000051353929688022935990000016896966111913585070_" gradientUnits="userSpaceOnUse" x1="-254.4383" y1="865.3684" x2="220.8789" y2="1620.8522" gradientTransform="matrix(0.9662 -0.258 0.258 0.9662 2310.519 829.7495)">
				<stop  offset="0" style="stop-color:#FF9085"/>
				<stop  offset="1" style="stop-color:#FB6FBB"/>
			</linearGradient>
			<path style="fill:url(#SVGID_00000051353929688022935990000016896966111913585070_);" d="M2612.424,1874.578
				c-52.309-6.382-138.977-23.689-232.126-76.829c-101.965-58.167-163.938-132.023-195.637-175.974
				c-16.198,6.58-32.394,13.157-48.592,19.733c44.666,124.777,106.51,189.164,156.308,225.063
				c40.767,29.389,88.089,50.232,138.762,108.439c36.415,41.829,57.705,83.594,70.081,112.678
				C2538.288,2016.651,2575.355,1945.615,2612.424,1874.578z"/>
			
				<linearGradient id="SVGID_00000109717629353365045240000016556525939550046650_" gradientUnits="userSpaceOnUse" x1="687.7385" y1="2670.5334" x2="1072.4426" y2="2670.5334" gradientTransform="matrix(0.9973 0.0735 -0.0735 0.9973 1946.6361 -72.9483)">
				<stop  offset="0" style="stop-color:#311944"/>
				<stop  offset="1" style="stop-color:#893976"/>
			</linearGradient>
			<path style="fill:url(#SVGID_00000109717629353365045240000016556525939550046650_);" d="M2503.672,2208.838
				c0,0-37.737,29.066-47.349,159.495c-9.612,130.431-32.299,518.422-32.299,518.422l11.892,204.748c0,0,27.751,3.041,46.795-1.175
				c22.4-75.16,59.249-202.375,54.171-311.406c3.061-117.799,66.081-261.154,66.081-261.154s33.733,152.359,59.916,229.225
				c26.184,76.865,69.283,314.798,73.637,331.979c36.818,6.093,53.371-2.541,53.371-2.541s-5.248-253.023-20.604-349.697
				c-15.356-96.676,21.982-429.259-10.478-497.219C2677.428,2189.795,2503.672,2208.838,2503.672,2208.838z"/>
			
				<linearGradient id="SVGID_00000054247226038650143160000013406135475406328500_" gradientUnits="userSpaceOnUse" x1="650.8519" y1="2343.9519" x2="965.1944" y2="2871.926" gradientTransform="matrix(0.9973 0.0735 -0.0735 0.9973 1946.6361 -72.9483)">
				<stop  offset="0" style="stop-color:#311944"/>
				<stop  offset="1" style="stop-color:#893976"/>
			</linearGradient>
			<path style="fill:url(#SVGID_00000054247226038650143160000013406135475406328500_);" d="M2503.672,2208.838
				c0,0-37.737,29.066-47.349,159.495c-9.612,130.431-32.299,518.422-32.299,518.422l11.892,204.748c0,0,27.749,3.041,46.794-1.175
				c22.4-75.16,59.249-202.375,54.171-311.406c3.061-117.799,66.081-261.154,66.081-261.154s33.734,152.359,59.916,229.225
				c26.184,76.865,69.284,314.798,73.638,331.98c36.816,6.092,53.37-2.542,53.37-2.542s-5.249-253.023-20.604-349.697
				c-15.357-96.676,21.982-429.259-10.478-497.219C2677.429,2189.795,2503.672,2208.838,2503.672,2208.838z"/>
			<g>
				<path style="fill:#26264F;" d="M2750.275,3150.142c0,0-4.093-0.302-4.142,5.009c-0.049,5.313-3.573,23.337,17.17,25.724
					c20.744,2.385,24.124,0.296,24.806,0.347c0.681,0.05-4.176-17.799-4.176-17.799l-6.023-9.017l-17.769-3.196L2750.275,3150.142z"
					/>
				<path style="fill:#444B8C;" d="M2795.063,3171.796c-0.12-4.424-2.068-11.519-4.13-17.264
					c-3.064-8.535,0.179-11.406-2.777-19.193c-1.021-2.691-2.02-5.247-4.404-7.881c-0.549-0.607-5.899-6.336-14.281-6.682
					c-1.649-0.068-4.19-0.145-7.035,1.112c-3.353,1.482-5.16,3.946-6.707,6.111c-2.432,3.402-2.015,4.533-6.108,14.497
					c-0.33,0.799-1.05,2.537-1.683,4.963c-0.485,1.856-0.742,3.425-0.883,4.5c5.458,0.402,26.372,2.801,30.567,6.367
					c4.195,3.567,6.01,9.188,5.608,14.646c-0.403,5.458,2.138,8.217,4.879,8.248
					C2790.558,3181.249,2795.734,3177.091,2795.063,3171.796z"/>
			</g>
			<path style="fill:#444B8C;" d="M2470.739,3133.81c4.682,0.418,7.844,4.401,9.775,13.582c1.931,9.18,13.79,18.05-0.59,15.078
				c-14.381-2.971-26.442,16.823-32.188,24.047c-5.746,7.224-20.166,12.956-19.272,5.548c0.893-7.408,7.292-10.429,9.581-17.908
				C2440.333,3166.678,2460.061,3132.854,2470.739,3133.81z"/>
			
				<linearGradient id="SVGID_00000090253379071379259780000000972397025040437901_" gradientUnits="userSpaceOnUse" x1="2528.8013" y1="2259.1831" x2="2838.9263" y2="2780.0735">
				<stop  offset="0" style="stop-color:#311944"/>
				<stop  offset="1" style="stop-color:#893976"/>
			</linearGradient>
			<path style="opacity:0.3;fill:url(#SVGID_00000090253379071379259780000000972397025040437901_);" d="M2707.338,2662.988
				c9.507,17.917,23.244,50.635,19.184,192.914c-0.456,16.002-2.865,93.909,7.382,143.747c2.818,13.707,6.257,31.94,17.749,49.698
				c6.911,10.679,14.045,21.015,21.202,31.184c11.566-1.274,17.031-4.099,17.031-4.099s-5.249-253.023-20.606-349.698
				c-15.357-96.676,21.984-429.259-10.476-497.219c-81.377-39.719-255.133-20.675-255.133-20.675s-37.738,29.066-47.349,159.496
				c-2.34,31.748-5.455,78.774-8.829,131.731c11.963,9.313,29.801,20.249,52.809,23.679c57.525,8.577,87.392-38.703,118.544-24.333
				c25.175,11.613,13.591,46.142,51.847,112.276C2688.978,2643.294,2694.718,2639.203,2707.338,2662.988z"/>
			
				<linearGradient id="SVGID_00000023967467143333893750000002098681424477969289_" gradientUnits="userSpaceOnUse" x1="562.3347" y1="1656.1765" x2="1052.8363" y2="2435.7949" gradientTransform="matrix(0.9973 0.0735 -0.0735 0.9973 1946.6361 -72.9483)">
				<stop  offset="0" style="stop-color:#FF9085"/>
				<stop  offset="1" style="stop-color:#FB6FBB"/>
			</linearGradient>
			<path style="fill:url(#SVGID_00000023967467143333893750000002098681424477969289_);" d="M2695.382,1880.009
				c-31.208-3.225-110.165-17.783-150.141,16.683c-14.513,12.512-25.594,24.927-34.366,38.518
				c-25.918,40.158-30.154,79.73-31.64,93.392c-16.551,152.259-89.487,235.595-48.553,313.757
				c61.624,117.672,333.495,132.292,395.748,40.308c47.199-69.743-50.838-164.233,7.328-260.167
				c29.121-48.031,42.246-104.32,68.707-153.867c0.657-1.229,3.33-5.062,1.846-9.095c-5.598-15.224-68.617-3.939-86.014-27.925
				C2787.519,1889.183,2726.867,1883.262,2695.382,1880.009z"/>
			<g>
				
					<linearGradient id="SVGID_00000125584138008614702430000015067541971469652912_" gradientUnits="userSpaceOnUse" x1="931.9886" y1="1836.931" x2="863.4125" y2="1947.8629" gradientTransform="matrix(0.9973 0.0735 -0.0735 0.9973 1946.6361 -72.9483)">
					<stop  offset="0" style="stop-color:#AB316D"/>
					<stop  offset="1" style="stop-color:#792D3D"/>
				</linearGradient>
				<path style="fill:url(#SVGID_00000125584138008614702430000015067541971469652912_);" d="M2675.598,1830.072
					c3.94-19.196,20.174-30.482,23.713-32.894c14.816-10.093,17.749-11.004,22.623-11.563l6.639-0.51c0,0,0.352,0.034,0.714,0.082
					c3.827,0.516,15.014,5.861,16.999,7.488c6.346,5.197-1.036,38.153-24.372,78.098c-1.056,3.45-2.112,6.901-3.169,10.351
					c34.507,7.709,42.44,12.277,42.184,15.105c-0.491,5.417-31.385,8.215-58.591,5.658c-34.299-3.223-69.691-15.608-68.745-22.148
					c0.44-3.04,8.925-6.159,45.531-6.105c2.816-3.401,5.631-6.801,8.45-10.203
					C2685.464,1860.451,2672.695,1844.213,2675.598,1830.072z"/>
				
					<linearGradient id="SVGID_00000055679842807825862120000012234068205042005888_" gradientUnits="userSpaceOnUse" x1="3263.5349" y1="1529.1295" x2="2676.4253" y2="1852.948">
					<stop  offset="0" style="stop-color:#444B8C"/>
					<stop  offset="0.9964" style="stop-color:#26264F"/>
				</linearGradient>
				<path style="fill:url(#SVGID_00000055679842807825862120000012234068205042005888_);" d="M2722.939,1771.978
					c-5.76,8.059-9.469,22.514-8.726,27.02c0.868,5.259,2.442,5.922,1.961,9.287c-1.346,9.452-18.956,12.316-18.346,17.172
					c0.437,3.469,9.535,2.882,10.771,7.288c1.353,4.828-8.837,8.146-13.959,19.66c-0.799,1.795-5.645,12.69-0.967,19.656
					c4.365,6.501,15.252,5.838,27.524,5.155c13.537-0.754,23.446-4.006,26.352-5.035c9.16-3.241,19.009-6.726,27.624-15.766
					c0.268-0.281,0.602-0.638,0.994-1.078c11.199-12.581,13.074-29.31,13.578-33.45c4.684-38.47,23.441-57.289,13.21-69.769
					C2789.023,1735.12,2738.267,1750.532,2722.939,1771.978z"/>
				
					<linearGradient id="SVGID_00000055700219883928973940000013305186973575127223_" gradientUnits="userSpaceOnUse" x1="323.1729" y1="1288.4597" x2="261.9918" y2="1387.4292" gradientTransform="matrix(0.9864 -0.164 0.164 0.9864 2183.5596 586.8365)">
					<stop  offset="0" style="stop-color:#AB316D"/>
					<stop  offset="1" style="stop-color:#792D3D"/>
				</linearGradient>
				<path style="fill:url(#SVGID_00000055700219883928973940000013305186973575127223_);" d="M2703.943,1824.825
					c5.325-2.676,8.729,4.173,5.904,9.733c-2.826,5.559-11.167,8.552-15.813,4.772
					C2689.387,1835.549,2696.774,1828.428,2703.943,1824.825z"/>
			</g>
			
				<linearGradient id="SVGID_00000088109303900551803480000001293756199729477566_" gradientUnits="userSpaceOnUse" x1="2581.9377" y1="1939.4514" x2="2864.3098" y2="2388.262">
				<stop  offset="0" style="stop-color:#FF9085"/>
				<stop  offset="1" style="stop-color:#FB6FBB"/>
			</linearGradient>
			<path style="opacity:0.3;fill:url(#SVGID_00000088109303900551803480000001293756199729477566_);" d="M2730.44,2244.486
				c-22.965,15.425-42.728,9.26-75.806,37.083c-27.041,22.745-34.931,37.194-44.972,54.264
				c-34.819,59.192-131.085,22.752-188.357-18.863c1.981,8.572,4.992,17.015,9.377,25.389
				c61.624,117.672,333.495,132.292,395.748,40.308c47.199-69.743-50.838-164.233,7.328-260.167
				c17.181-28.337,28.797-59.547,40.866-90.552c29.752-18.531,58.966-37.31,71.813-47.318c9.717-7.571,25.107-23.759,42.062-42.974
				c-20.453,15.817-53.5,37.858-98.402,52.592c-52.47,17.218-60.451,4.546-81.646,18.551
				C2741.439,2057.078,2800.323,2197.547,2730.44,2244.486z"/>
		</g>
	</g>
</g>
</svg>
